<?xml version="1.0" encoding="utf-8"?>
<!-- Generator: Adobe Illustrator 19.0.0, SVG Export Plug-In . SVG Version: 6.00 Build 0)  -->
<svg version="1.1" id="Layer_1" xmlns="http://www.w3.org/2000/svg" xmlns:xlink="http://www.w3.org/1999/xlink" x="0px" y="0px"
	 width="184.3px" height="110.3px" viewBox="36.7 591 184.3 110.3" style="enable-background:new 36.7 591 184.3 110.3;"
	 xml:space="preserve">
<style type="text/css">
	.st0{display:none;}
	.st1{display:inline;fill:#C11010;stroke:#000000;stroke-width:1.5665;stroke-miterlimit:10;}
	.st2{fill:#E2E2E2;}
	.st3{clip-path:url(#SVGID_2_);}
	.st4{fill:#307CB8;}
	.st5{fill:#2873A5;}
	.st6{fill:#56B881;}
	.st7{fill:#2A4B67;}
	.st8{fill:#419362;}
	.st9{fill:#3B474D;}
	.st10{fill:#222B30;}
	.st11{fill:#2A343A;}
	.st12{fill:#8A8BCB;}
	.st13{fill:#455057;}
	.st14{fill:#FFFFFF;}
	.st15{fill:none;stroke:#E6E6E6;stroke-width:2;stroke-linecap:round;stroke-linejoin:round;stroke-miterlimit:10;}
	.st16{fill:#CCCCCC;}
	.st17{fill:#41AFA5;}
	.st18{fill:#D7D8D7;}
	.st19{fill:#CACCCB;}
</style>
<g id="Layer_2" class="st0">
	<rect x="-389.1" y="586.9" class="st1" width="170" height="156.2"/>
	<rect x="-218.6" y="586.9" class="st1" width="170" height="156.2"/>
	<rect x="-49.1" y="586.9" class="st1" width="170" height="156.2"/>
	<rect x="121.1" y="586.9" class="st1" width="170" height="156.2"/>
	<rect x="291.1" y="586.9" class="st1" width="170" height="156.2"/>
</g>
<path class="st2" d="M204.6,694.4h-151c-2,0-3.6-1.6-3.6-3.6v-94.3c0-2,1.6-3.6,3.6-3.6h151c2,0,3.6,1.6,3.6,3.6v94.3
	C208.2,692.8,206.6,694.4,204.6,694.4z"/>
<g>
	<defs>
		<path id="SVGID_1_" d="M199.2,688.2H60.3c-0.8,0-1.4-0.6-1.4-1.4v-83.9c0-0.8,0.6-1.4,1.4-1.4h138.9c0.8,0,1.4,0.6,1.4,1.4v83.9
			C200.6,687.6,199.9,688.2,199.2,688.2z"/>
	</defs>
	<clipPath id="SVGID_2_">
		<use xlink:href="#SVGID_1_"  style="overflow:visible;"/>
	</clipPath>
	<g class="st3">
		<g>
			<g>
				<rect x="84.9" y="600.7" class="st4" width="118" height="90.7"/>
			</g>
		</g>
		<g>
			<g>
				<path class="st5" d="M101.6,625.1v12.1c0,0.4,0.3,0.8,0.7,0.8l13.4,2.3c0.3,0,0.6,0,0.8-0.3l13.4-14.4c0.1-0.1,0.3-0.2,0.4-0.2
					l20.4-4.9c0.3-0.1,0.6,0,0.8,0.2l19.3,20l0.1,0.1l16,22.1c0.2,0.3,0.2,0.7,0,0.9l-16.2,25.8c-0.2,0.2-0.4,0.4-0.7,0.4H90.2
					c-0.4,0-0.8-0.3-0.8-0.7l-8.9-53.1c-0.1-0.3,0.1-0.7,0.4-0.9l19.4-11C100.9,624.1,101.6,624.5,101.6,625.1z"/>
			</g>
			<g>
				<path class="st5" d="M170,691.7H90.2c-1.2,0-2.3-0.9-2.5-2.1l-8.9-53.1c-0.2-1,0.3-2.1,1.2-2.6l19.4-11c0.8-0.4,1.7-0.4,2.5,0
					c0.8,0.4,1.2,1.3,1.2,2.2v11.4l12.3,2.1l13.1-14.1c0.3-0.4,0.8-0.6,1.2-0.7l20.4-4.9c0.9-0.2,1.8,0.1,2.4,0.7l19.3,20
					c0.1,0.1,0.2,0.2,0.2,0.3l16,22.1c0.6,0.8,0.6,1.9,0.1,2.8l-16.2,25.8C171.7,691.3,170.9,691.7,170,691.7z M90.9,688.4h78.7
					l15.7-24.9l-15.7-21.6l-19-19.7l-19.8,4.8l-13.2,14.3c-0.6,0.6-1.4,0.9-2.3,0.8l-13.4-2.3c-1.2-0.2-2.1-1.2-2.1-2.5v-10.8
					l-17.7,10.1L90.9,688.4z"/>
			</g>
		</g>
		<g>
			<g>
				<polygon class="st6" points="101.4,624 101.4,638.2 115.9,640.7 129.8,625.8 150.9,620.7 170.6,641.1 187,663.7 170.3,690.4 
					73.5,689.4 80.2,636 				"/>
			</g>
		</g>
		<g>
			<g>
				<path class="st7" d="M173.1,659.4H56.4c-1.9,0-3.5-1.6-3.5-3.5c0-1.9,1.6-3.5,3.5-3.5h116.7c1.9,0,3.5,1.6,3.5,3.5
					C176.6,657.8,175.1,659.4,173.1,659.4z"/>
			</g>
		</g>
		<g>
			<g>
				<path class="st7" d="M136.4,684.4H75.3c-1.9,0-3.5-1.6-3.5-3.5c0-1.9,1.6-3.5,3.5-3.5h57.6v-38.7c0-1.5,0.9-2.8,2.4-3.3
					l12.1-4.2c1.8-0.6,3.8,0.3,4.5,2.2c0.6,1.8-0.3,3.8-2.2,4.5l-9.8,3.4V681C139.9,682.8,138.3,684.4,136.4,684.4z"/>
			</g>
		</g>
		<g>
			<g>
				<path class="st7" d="M111.6,701.3c-1.9,0-3-1.6-3-3.5v-41.3c0-1.9,1.1-3.5,3-3.5s3,1.6,3,3.5v41.3
					C114.6,699.8,113.5,701.3,111.6,701.3z"/>
			</g>
		</g>
		<g>
			<g>
				<path class="st7" d="M159.1,701.3c-1.9,0-3.5-1.6-3.5-3.5v-41.3c0-1.9,1.6-3.5,3.5-3.5s3.5,1.6,3.5,3.5v41.3
					C162.6,699.8,161,701.3,159.1,701.3z"/>
			</g>
		</g>
		<g>
			<g>
				<path class="st8" d="M94.4,631.4l-8.9,4.9c-0.7,0.4-1.1,1.2-1,2.1l1.5,10.1c0.2,1,1,1.7,2,1.7h7.7c1.1,0,2-0.9,2-2l0.2-15.2
					c0-1.3-1.2-2.3-2.5-2l-0.6,0.2C94.7,631.3,94.6,631.3,94.4,631.4z"/>
			</g>
		</g>
		<g>
			<g>
				<path class="st6" d="M95.2,648.4h-5.8c-0.4,0-0.8-0.3-0.9-0.7l-0.4-2.6c-0.1-0.5,0.3-1,0.9-1h6.3c0.5,0,0.9,0.4,0.9,0.9v2.6
					C96.1,648,95.7,648.4,95.2,648.4z"/>
			</g>
		</g>
		<g>
			<g>
				<path class="st6" d="M87,639.5l0.5,2.2c0,0.2,0.2,0.3,0.4,0.3h7.2c0.2,0,0.4-0.2,0.4-0.4v-6.2c0-0.3-0.3-0.5-0.6-0.4l-7.3,3.1
					C87.2,638.3,86.9,638.9,87,639.5z"/>
			</g>
		</g>
		<g>
			<g>
				<path class="st8" d="M101.9,675.1H84.2c-1.1,0-1.9-0.9-1.9-1.9v-8.6c0-1.1,0.9-1.9,1.9-1.9h17.7c1.1,0,1.9,0.9,1.9,1.9v8.6
					C103.8,674.2,103,675.1,101.9,675.1z"/>
			</g>
		</g>
		<g>
			<g>
				<path class="st8" d="M152.7,670.6h-9.2c-0.6,0-1-0.5-1-1v-5c0-0.6,0.5-1,1-1h9.2c0.6,0,1,0.5,1,1v5
					C153.8,670.2,153.3,670.6,152.7,670.6z"/>
			</g>
		</g>
		<g>
			<g>
				<path class="st8" d="M152.1,692.3h-7.8c-0.9,0-1.7-0.8-1.7-1.7v-15.5c0-0.9,0.8-1.7,1.7-1.7h7.8c0.9,0,1.7,0.8,1.7,1.7v15.5
					C153.8,691.6,153,692.3,152.1,692.3z"/>
			</g>
		</g>
		<g>
			<g>
				<path class="st6" d="M150.3,687.6H146c-0.5,0-1-0.4-1-1v-9c0-0.5,0.4-1,1-1h4.3c0.5,0,1,0.4,1,1v9
					C151.3,687.2,150.9,687.6,150.3,687.6z"/>
			</g>
		</g>
		<g>
			<g>
				<path class="st8" d="M115.5,650.4h-13.6c-0.6,0-1.1-0.7-1.1-1.5v-6.7c0-1,0.6-1.7,1.3-1.5l13.3,3.1c0.6,0.1,1,0.8,1.1,1.6
					l0.2,3.3C116.7,649.6,116.2,650.4,115.5,650.4z"/>
			</g>
		</g>
		<g>
			<g>
				<path class="st8" d="M128.3,674.7h-7.6c-1.1,0-1.9-0.9-1.9-1.9v-7.5c0-1.1,0.9-1.9,1.9-1.9h7.6c1.1,0,1.9,0.9,1.9,1.9v7.5
					C130.2,673.9,129.3,674.7,128.3,674.7z"/>
			</g>
		</g>
		<g>
			<g>
				<circle class="st6" cx="88.8" cy="669.2" r="3.4"/>
			</g>
		</g>
		<g>
			<g>
				<circle class="st6" cx="97.5" cy="669.3" r="3.4"/>
			</g>
		</g>
		<g>
			<g>
				<path class="st8" d="M143.2,644.2v3.9c0,0.7,0.6,1.3,1.3,1.3l23.7,0.2c1.1,0,1.7-1.2,1.1-2.1l-5.2-6.8c-0.2-0.2-0.4-0.4-0.6-0.4
					l-4.8-1.7c-0.3-0.1-0.6-0.1-0.8,0l-13.7,4.4C143.6,643.1,143.2,643.6,143.2,644.2z"/>
			</g>
		</g>
		<g>
			<g>
				<path class="st8" d="M127.6,635.5l-7.9,7.9c-0.2,0.2-0.3,0.5-0.3,0.7l-0.2,4.7c0,0.6,0.5,1.2,1.1,1.2h8.3c0.6,0,1.1-0.5,1.1-1.1
					l-0.2-12.5C129.5,635.2,128.3,634.8,127.6,635.5z"/>
			</g>
		</g>
		<g>
			<g>
				<path class="st5" d="M169.1,657.4h-2.2c-0.3,0-0.5-0.7-0.5-1s0.2-1,0.5-1h2.2c0.3,0,0.5,0.7,0.5,1S169.4,657.4,169.1,657.4z
					 M163.5,657.4h-2.2c-0.3,0-0.5-0.7-0.5-1s0.2-1,0.5-1h2.2c0.3,0,0.5,0.7,0.5,1S163.8,657.4,163.5,657.4z M157.9,657.4h-2.2
					c-0.3,0-0.5-0.7-0.5-1s0.2-1,0.5-1h2.2c0.3,0,0.5,0.7,0.5,1S158.2,657.4,157.9,657.4z M152.3,657.4h-2.2c-0.3,0-0.5-0.7-0.5-1
					s0.2-1,0.5-1h2.2c0.3,0,0.5,0.7,0.5,1S152.6,657.4,152.3,657.4z M146.7,657.4h-2.2c-0.3,0-0.5-0.7-0.5-1s0.2-1,0.5-1h2.2
					c0.3,0,0.5,0.7,0.5,1S147,657.4,146.7,657.4z M141.2,657.4H139c-0.3,0-0.5-0.7-0.5-1s0.2-1,0.5-1h2.2c0.3,0,0.5,0.7,0.5,1
					S141.4,657.4,141.2,657.4z M135.6,657.4h-2.2c-0.3,0-0.5-0.7-0.5-1s0.2-1,0.5-1h2.2c0.3,0,0.5,0.7,0.5,1
					S135.8,657.4,135.6,657.4z M130,657.4h-2.2c-0.3,0-0.5-0.7-0.5-1s0.2-1,0.5-1h2.2c0.3,0,0.5,0.7,0.5,1S130.2,657.4,130,657.4z
					 M124.4,657.4h-2.2c-0.3,0-0.5-0.7-0.5-1s0.2-1,0.5-1h2.2c0.3,0,0.5,0.7,0.5,1S124.7,657.4,124.4,657.4z M118.8,657.4h-2.2
					c-0.3,0-0.5-0.7-0.5-1s0.2-1,0.5-1h2.2c0.3,0,0.5,0.7,0.5,1S119.1,657.4,118.8,657.4z M113.2,657.4H111c-0.3,0-0.5-0.7-0.5-1
					s0.2-1,0.5-1h2.2c0.3,0,0.5,0.7,0.5,1S113.5,657.4,113.2,657.4z M107.6,657.4h-2.2c-0.3,0-0.5-0.7-0.5-1s0.2-1,0.5-1h2.2
					c0.3,0,0.5,0.7,0.5,1S107.9,657.4,107.6,657.4z M102,657.4h-2.2c-0.3,0-0.5-0.7-0.5-1s0.2-1,0.5-1h2.2c0.3,0,0.5,0.7,0.5,1
					S102.3,657.4,102,657.4z M96.4,657.4h-2.2c-0.3,0-0.5-0.7-0.5-1s0.2-1,0.5-1h2.2c0.3,0,0.5,0.7,0.5,1S96.7,657.4,96.4,657.4z
					 M90.8,657.4h-2.2c-0.3,0-0.5-0.7-0.5-1s0.2-1,0.5-1h2.2c0.3,0,0.5,0.7,0.5,1S91.1,657.4,90.8,657.4z M85.2,657.4H83
					c-0.3,0-0.5-0.7-0.5-1s0.2-1,0.5-1h2.2c0.3,0,0.5,0.7,0.5,1S85.5,657.4,85.2,657.4z M79.6,657.4h-2.2c-0.3,0-0.5-0.7-0.5-1
					s0.2-1,0.5-1h2.2c0.3,0,0.5,0.7,0.5,1S79.9,657.4,79.6,657.4z M74.1,657.4h-2.2c-0.3,0-0.5-0.7-0.5-1s0.2-1,0.5-1h2.2
					c0.3,0,0.5,0.7,0.5,1S74.3,657.4,74.1,657.4z M68.5,657.4h-2.2c-0.3,0-0.5-0.7-0.5-1s0.2-1,0.5-1h2.2c0.3,0,0.5,0.7,0.5,1
					S68.7,657.4,68.5,657.4z M62.9,657.4h-2.2c-0.3,0-0.5-0.7-0.5-1s0.2-1,0.5-1h2.2c0.3,0,0.5,0.7,0.5,1S63.2,657.4,62.9,657.4z
					 M57.3,657.4h-2.2c-0.3,0-0.5-0.7-0.5-1s0.2-1,0.5-1h2.2c0.3,0,0.5,0.7,0.5,1S57.6,657.4,57.3,657.4z"/>
			</g>
		</g>
		<g>
			<g>
				<path class="st5" d="M135,681.4h-2.2c-0.3,0-0.5-0.2-0.5-0.5s0.2-0.5,0.5-0.5h2.2c0.3,0,0.5,0.2,0.5,0.5S135.3,681.4,135,681.4z
					 M129.4,681.4h-2.2c-0.3,0-0.5-0.2-0.5-0.5s0.2-0.5,0.5-0.5h2.2c0.3,0,0.5,0.2,0.5,0.5S129.7,681.4,129.4,681.4z M123.8,681.4
					h-2.2c-0.3,0-0.5-0.2-0.5-0.5s0.2-0.5,0.5-0.5h2.2c0.3,0,0.5,0.2,0.5,0.5S124.1,681.4,123.8,681.4z M118.2,681.4H116
					c-0.3,0-0.5-0.2-0.5-0.5s0.2-0.5,0.5-0.5h2.2c0.3,0,0.5,0.2,0.5,0.5S118.5,681.4,118.2,681.4z M112.6,681.4h-2.2
					c-0.3,0-0.5-0.2-0.5-0.5s0.2-0.5,0.5-0.5h2.2c0.3,0,0.5,0.2,0.5,0.5S112.9,681.4,112.6,681.4z M107,681.4h-2.2
					c-0.3,0-0.5-0.2-0.5-0.5s0.2-0.5,0.5-0.5h2.2c0.3,0,0.5,0.2,0.5,0.5S107.3,681.4,107,681.4z M101.4,681.4h-2.2
					c-0.3,0-0.5-0.2-0.5-0.5s0.2-0.5,0.5-0.5h2.2c0.3,0,0.5,0.2,0.5,0.5S101.7,681.4,101.4,681.4z M95.8,681.4h-2.2
					c-0.3,0-0.5-0.2-0.5-0.5s0.2-0.5,0.5-0.5h2.2c0.3,0,0.5,0.2,0.5,0.5S96.1,681.4,95.8,681.4z M90.3,681.4h-2.2
					c-0.3,0-0.5-0.2-0.5-0.5s0.2-0.5,0.5-0.5h2.2c0.3,0,0.5,0.2,0.5,0.5S90.5,681.4,90.3,681.4z M84.7,681.4h-2.2
					c-0.3,0-0.5-0.2-0.5-0.5s0.2-0.5,0.5-0.5h2.2c0.3,0,0.5,0.2,0.5,0.5S84.9,681.4,84.7,681.4z M79.1,681.4h-2.2
					c-0.3,0-0.5-0.2-0.5-0.5s0.2-0.5,0.5-0.5h2.2c0.3,0,0.5,0.2,0.5,0.5S79.3,681.4,79.1,681.4z M136.4,679.8L136.4,679.8
					c-0.3,0-0.5-0.3-0.5-0.6V677c0-0.3,0.2-0.5,0.5-0.5l0,0c0.3,0,0.5,0.2,0.5,0.5v2.2C136.9,679.5,136.7,679.8,136.4,679.8z
					 M136.4,674.4L136.4,674.4c-0.3,0-0.5-0.4-0.5-0.7v-2.4c0-0.3,0.2-0.8,0.5-0.8l0,0c0.3,0,0.5,0.4,0.5,0.7v2.4
					C136.9,673.9,136.7,674.4,136.4,674.4z M136.4,668.4L136.4,668.4c-0.3,0-0.5-0.2-0.5-0.5v-2.1c0-0.3,0.2-0.4,0.5-0.4l0,0
					c0.3,0,0.5,0.1,0.5,0.4v2.1C136.9,668.2,136.7,668.4,136.4,668.4z M136.4,662.7L136.4,662.7c-0.3,0-0.5-0.2-0.5-0.5v-2.1
					c0-0.3,0.2-0.4,0.5-0.4l0,0c0.3,0,0.5,0.2,0.5,0.5v2.1C136.9,662.6,136.7,662.7,136.4,662.7z M136.4,657.1L136.4,657.1
					c-0.3,0-0.5-0.1-0.5-0.4v-2c0-0.3,0.2-0.3,0.5-0.3l0,0c0.3,0,0.5,0.1,0.5,0.4v2C136.9,657,136.7,657.1,136.4,657.1z
					 M136.4,651.7L136.4,651.7c-0.3,0-0.5-0.2-0.5-0.5V649c0-0.3,0.2-0.6,0.5-0.6l0,0c0.3,0,0.5,0.3,0.5,0.5v2.2
					C136.9,651.4,136.7,651.7,136.4,651.7z M136.4,646.3L136.4,646.3c-0.3,0-0.5-0.4-0.5-0.6v-2.3c0-0.3,0.2-0.7,0.5-0.7l0,0
					c0.3,0,0.5,0.3,0.5,0.6v2.3C136.9,645.9,136.7,646.3,136.4,646.3z M136.4,640.4L136.4,640.4c-0.3,0-0.5-0.2-0.5-0.5v-0.6
					c0-0.2,0.1-0.4,0.4-0.5l1.5-0.5c0.3-0.1,0.5,0.1,0.6,0.3s-0.2,0.5-0.5,0.6l-1.3,0.4v0.2C136.6,640.2,136.6,640.4,136.4,640.4z
					 M141.2,638.3c-0.2,0-0.4-0.1-0.5-0.3c-0.1-0.3,0.1-0.5,0.3-0.6l2-0.7c0.3-0.1,0.5,0.1,0.6,0.3c0.1,0.3-0.1,0.5-0.3,0.6l-2,0.7
					H141.2z M146.5,636.6c-0.2,0-0.4-0.1-0.5-0.3c-0.1-0.3,0.1-0.5,0.3-0.6l2-0.7c0.3-0.1,0.5,0.1,0.6,0.3c0.1,0.3-0.1,0.5-0.3,0.6
					l-2,0.7H146.5z"/>
			</g>
		</g>
		<g>
			<g>
				<path class="st5" d="M112.1,698.3c-0.3,0-0.5-0.2-0.5-0.5v-2.2c0-0.3,0.2-0.5,0.5-0.5s0.5,0.2,0.5,0.5v2.2
					C112.6,698.1,112.4,698.3,112.1,698.3z M112.1,692.7c-0.3,0-0.5-0.2-0.5-0.5V690c0-0.3,0.2-0.5,0.5-0.5s0.5,0.2,0.5,0.5v2.2
					C112.6,692.5,112.4,692.7,112.1,692.7z M112.1,687.1c-0.3,0-0.5-0.2-0.5-0.5v-2.2c0-0.3,0.2-0.5,0.5-0.5s0.5,0.2,0.5,0.5v2.2
					C112.6,686.9,112.4,687.1,112.1,687.1z M112.1,681.5c-0.3,0-0.5-0.2-0.5-0.5v-2.2c0-0.3,0.2-0.5,0.5-0.5s0.5,0.2,0.5,0.5v2.2
					C112.6,681.3,112.4,681.5,112.1,681.5z M112.1,676c-0.3,0-0.5-0.2-0.5-0.5v-2.2c0-0.3,0.2-0.5,0.5-0.5s0.5,0.2,0.5,0.5v2.2
					C112.6,675.7,112.4,676,112.1,676z M112.1,670.4c-0.3,0-0.5-0.2-0.5-0.5v-2.2c0-0.3,0.2-0.5,0.5-0.5s0.5,0.2,0.5,0.5v2.2
					C112.6,670.1,112.4,670.4,112.1,670.4z M112.1,664.8c-0.3,0-0.5-0.2-0.5-0.5v-2.2c0-0.3,0.2-0.5,0.5-0.5s0.5,0.2,0.5,0.5v2.2
					C112.6,664.6,112.4,664.8,112.1,664.8z M112.1,659.2c-0.3,0-0.5-0.2-0.5-0.5v-2.2c0-0.3,0.2-0.5,0.5-0.5s0.5,0.2,0.5,0.5v2.2
					C112.6,659,112.4,659.2,112.1,659.2z"/>
			</g>
		</g>
		<g>
			<g>
				<path class="st5" d="M159.1,698c-0.3,0-0.5-0.2-0.5-0.5v-2.1c0-0.3,0.2-0.5,0.5-0.5s0.5,0.2,0.5,0.5v2.2
					C159.6,697.8,159.4,698,159.1,698z M159.1,692.4c-0.3,0-0.5-0.2-0.5-0.5v-2.2c0-0.3,0.2-0.5,0.5-0.5s0.5,0.2,0.5,0.5v2.2
					C159.6,692.2,159.4,692.4,159.1,692.4z M159.1,686.9c-0.3,0-0.5-0.2-0.5-0.5v-2.2c0-0.3,0.2-0.5,0.5-0.5s0.5,0.2,0.5,0.5v2.2
					C159.6,686.6,159.4,686.9,159.1,686.9z M159.1,681.3c-0.3,0-0.5-0.2-0.5-0.5v-2.2c0-0.3,0.2-0.5,0.5-0.5s0.5,0.2,0.5,0.5v2.2
					C159.6,681,159.4,681.3,159.1,681.3z M159.1,675.7c-0.3,0-0.5-0.2-0.5-0.5V673c0-0.3,0.2-0.5,0.5-0.5s0.5,0.2,0.5,0.5v2.2
					C159.6,675.4,159.4,675.7,159.1,675.7z M159.1,670.1c-0.3,0-0.5-0.2-0.5-0.5v-2.2c0-0.3,0.2-0.5,0.5-0.5s0.5,0.2,0.5,0.5v2.2
					C159.6,669.9,159.4,670.1,159.1,670.1z M159.1,664.5c-0.3,0-0.5-0.2-0.5-0.5v-2.2c0-0.3,0.2-0.5,0.5-0.5s0.5,0.2,0.5,0.5v2.2
					C159.6,664.3,159.4,664.5,159.1,664.5z M159.1,658.9c-0.3,0-0.5-0.2-0.5-0.5v-2.2c0-0.3,0.2-0.5,0.5-0.5s0.5,0.2,0.5,0.5v2.2
					C159.6,658.7,159.4,658.9,159.1,658.9z"/>
			</g>
		</g>
	</g>
</g>
<g>
	<defs>
		<path id="SVGID_3_" d="M199.2,688.2H60.3c-0.8,0-1.4-0.6-1.4-1.4v-83.9c0-0.8,0.6-1.4,1.4-1.4h138.9c0.8,0,1.4,0.6,1.4,1.4v83.9
			C200.6,687.6,199.9,688.2,199.2,688.2z"/>
	</defs>
	<clipPath id="SVGID_4_">
		<use xlink:href="#SVGID_3_"  style="overflow:visible;"/>
	</clipPath>
</g>
<path class="st9" d="M195.5,627.2h-3.8c-0.4,0-0.8-0.4-0.8-0.8v-19.3c0-0.4,0.4-0.8,0.8-0.8h3.8c0.4,0,0.8,0.4,0.8,0.8v19.3
	C196.3,626.8,196,627.2,195.5,627.2z"/>
<path class="st10" d="M68,688.4h-9.5c-0.7,0-1.3-0.6-1.3-1.3v-84.6c0-0.7,0.6-1.3,1.3-1.3H68V688.4z"/>
<rect x="67.9" y="601.4" class="st11" width="20.7" height="87.2"/>
<rect x="68" y="601.3" class="st9" width="20.5" height="6.4"/>
<rect x="57.2" y="622.1" class="st12" width="1.2" height="7.8"/>
<circle class="st9" cx="62.9" cy="614.7" r="2.7"/>
<circle class="st9" cx="71" cy="611.1" r="1.2"/>
<circle class="st13" cx="62.9" cy="625.7" r="2.7"/>
<circle class="st9" cx="62.9" cy="637.1" r="2.7"/>
<g>
	<path class="st9" d="M85.4,612.4H74.9c-0.5,0-0.9-0.5-0.9-1s0.4-1,0.9-1h10.5c0.5,0,0.9,0.5,0.9,1S85.9,612.4,85.4,612.4z"/>
</g>
<circle class="st9" cx="71" cy="616.2" r="1.2"/>
<g>
	<path class="st9" d="M85.4,617.4H74.9c-0.5,0-0.9-0.5-0.9-1s0.4-1,0.9-1h10.5c0.5,0,0.9,0.5,0.9,1S85.9,617.4,85.4,617.4z"/>
</g>
<circle class="st9" cx="71" cy="621.3" r="1.2"/>
<g>
	<path class="st9" d="M85.4,622.4H74.9c-0.5,0-0.9-0.5-0.9-1s0.4-1,0.9-1h10.5c0.5,0,0.9,0.5,0.9,1S85.9,622.4,85.4,622.4z"/>
</g>
<circle class="st9" cx="71" cy="626.3" r="1.2"/>
<g>
	<path class="st9" d="M85.4,627.4H74.9c-0.5,0-0.9-0.5-0.9-1s0.4-1,0.9-1h10.5c0.5,0,0.9,0.5,0.9,1S85.9,627.4,85.4,627.4z"/>
</g>
<circle class="st9" cx="71" cy="631.4" r="1.2"/>
<g>
	<path class="st9" d="M85.4,632.4H74.9c-0.5,0-0.9-0.5-0.9-1s0.4-1,0.9-1h10.5c0.5,0,0.9,0.5,0.9,1S85.9,632.4,85.4,632.4z"/>
</g>
<circle class="st9" cx="71" cy="636.5" r="1.2"/>
<g>
	<path class="st9" d="M85.4,638.4H74.9c-0.5,0-0.9-1-0.9-1.5s0.4-1.5,0.9-1.5h10.5c0.5,0,0.9,1,0.9,1.5S85.9,638.4,85.4,638.4z"/>
</g>
<path class="st14" d="M159.4,649.6h-18.2c-1.1,0-2-0.9-2-2v-9.5c0-1.1,0.9-2,2-2h18.2c1.1,0,2,0.9,2,2v9.5
	C161.4,648.8,160.5,649.6,159.4,649.6z"/>
<polygon class="st14" points="155.7,647.4 152.2,653.6 148.6,647.4 "/>
<line class="st15" x1="149.6" y1="641.4" x2="156.6" y2="641.4"/>
<line class="st15" x1="149.6" y1="646.4" x2="156.6" y2="646.4"/>
<circle class="st16" cx="144.3" cy="640.5" r="1.8"/>
<circle class="st16" cx="144.3" cy="645.8" r="1.8"/>
<rect x="140.6" y="638.5" class="st17" width="0.8" height="3.6"/>
<rect x="140.6" y="643.9" class="st17" width="0.8" height="3.6"/>
<path class="st18" d="M209,698.2H46.4c-3.7,0-6.7-3-6.7-6.7v-0.1h176v0.1C215.7,695.2,212.7,698.2,209,698.2z"/>
<path class="st19" d="M136.6,693.9h-12.8c-1.4,0-2.6-1.2-2.6-2.6l0,0h17.9l0,0C139.2,692.8,138,693.9,136.6,693.9z"/>
</svg>
